{"title":"Yaariyan (2014) 1CD DVDScr XviD Mp3 Chaudhary&amp;trade;  ExD XMR Ex","uid":9467042,"size":741179976,"categoryP":"video","categoryS":"movies","magnet":"?xt=urn:btih:e53a71e0b785c127568f2d7f8097893925ad082a&amp;dn=Yaariyan+%282014%29+1CD+DVDScr+XviD+Mp3+Chaudhary%26trade%3B++ExD+XMR+Ex&amp;tr=udp%3A%2F%2Ftracker.openbittorrent.com%3A80&amp;tr=udp%3A%2F%2Fopen.demonii.com%3A1337&amp;tr=udp%3A%2F%2Ftracker.coppersurfer.tk%3A6969&amp;tr=udp%3A%2F%2Fexodus.desync.com%3A6969","seeders":1,"leechers":0,"uploader":"Chaudhary1","files":2,"time":1389473785,"description":" &lt;a href=&quot;http://img843.imageshack.us/img843/3355/f8rv.png&quot; rel=&quot;nofollow&quot; target=&quot;_NEW&quot;&gt;http://img843.imageshack.us/img843/3355/f8rv.png&lt;/a&gt;\n\n\n\n &lt;a href=&quot;\nhttp://i.imgur.com/qKUSQVi.jpg&quot; rel=&quot;nofollow&quot; target=&quot;_NEW&quot;&gt;\nhttp://i.imgur.com/qKUSQVi.jpg&lt;/a&gt;\n\n\nGeneral\nComplete name                            : D:Yaariyan (2014) 1CD DVDScr XviD Mp3 Chaudharyâ„¢  ExD XMR ExlculsiveYaariyan (2014) 1CD DVDScr XviD Mp3 Chaudharyâ„¢  ExD XMR Exlculsive.avi\nFormat                                   : AVI\nFormat/Info                              : Audio Video Interleave\nFile size                                : 702 MiB\nDuration                                 : 2h 19mn\nOverall bit rate                         : 702 Kbps\n\nVideo\nID                                       : 0\nFormat                                   : MPEG-4 Visual\nFormat profile                           : Advanced Simple@L5\nFormat settings, BVOP                    : 1\nFormat settings, QPel                    : No\nFormat settings, GMC                     : No warppoints\nFormat settings, Matrix                  : Default (H.263)\nMuxing mode                              : Packed bitstream\nCodec ID                                 : XVID\nCodec ID/Hint                            : XviD\nDuration                                 : 2h 19mn\nBit rate                                 : 648 Kbps\nWidth                                    : 640 pixels\nHeight                                   : 272 pixels\nDisplay aspect ratio                     : 0.963\nFrame rate                               : 23.976 fps\nColor space                              : YUV\nChroma subsampling                       : 4:2:0\nBit depth                                : 8 bits\nScan type                                : Progressive\nCompression mode                         : Lossy\nBits/(Pixel*Frame)                       : 0.155\nStream size                              : 648 MiB (92%)\nWriting library                          : XviD 1.2.1 (UTC 2008-12-04)\n\nAudio\nID                                       : 1\nFormat                                   : MPEG Audio\nFormat version                           : Version 2\nFormat profile                           : Layer 3\nMode                                     : Joint stereo\nMode extension                           : MS Stereo\nCodec ID                                 : 55\nCodec ID/Hint                            : MP3\nDuration                                 : 2h 19mn\nBit rate mode                            : Constant\nBit rate                                 : 48.0 Kbps\nChannel count                            : 2 channels\nSampling rate                            : 22.05 KHz\nCompression mode                         : Lossy\nStream size                              : 48.0 MiB (7%)\nAlignment                                : Aligned on interleaves\nInterleave, duration                     : 167 ms (4.00 video frames)\nInterleave, preload duration             : 209 ms\nTitle                                    : Chaudharyâ„¢ \nWriting library                          : LAME3.99.5\n\n &lt;a href=&quot;\nhttp://i.imgur.com/tE7VE80.png&quot; rel=&quot;nofollow&quot; target=&quot;_NEW&quot;&gt;\nhttp://i.imgur.com/tE7VE80.png&lt;/a&gt;\n\n &lt;a href=&quot;\nhttp://i.imgur.com/BUsfBZ6.png&quot; rel=&quot;nofollow&quot; target=&quot;_NEW&quot;&gt;\nhttp://i.imgur.com/BUsfBZ6.png&lt;/a&gt; &lt;a href=&quot;\nhttp://i.imgur.com/eTRWbub.png&quot; rel=&quot;nofollow&quot; target=&quot;_NEW&quot;&gt;\nhttp://i.imgur.com/eTRWbub.png&lt;/a&gt; &lt;a href=&quot;\nhttp://i.imgur.com/icgWBFh.png&quot; rel=&quot;nofollow&quot; target=&quot;_NEW&quot;&gt;\nhttp://i.imgur.com/icgWBFh.png&lt;/a&gt; &lt;a href=&quot;\nhttp://i.imgur.com/kPiyjfo.png&quot; rel=&quot;nofollow&quot; target=&quot;_NEW&quot;&gt;\nhttp://i.imgur.com/kPiyjfo.png&lt;/a&gt; &lt;a href=&quot;\nhttp://i.imgur.com/7nmpARh.png&quot; rel=&quot;nofollow&quot; target=&quot;_NEW&quot;&gt;\nhttp://i.imgur.com/7nmpARh.png&lt;/a&gt; &lt;a href=&quot;\nhttp://i.imgur.com/kDM8GJk.png&quot; rel=&quot;nofollow&quot; target=&quot;_NEW&quot;&gt;\nhttp://i.imgur.com/kDM8GJk.png&lt;/a&gt; &lt;a href=&quot;\nhttp://i.imgur.com/7aTkOuz.png&quot; rel=&quot;nofollow&quot; target=&quot;_NEW&quot;&gt;\nhttp://i.imgur.com/7aTkOuz.png&lt;/a&gt; &lt;a href=&quot;\nhttp://i.imgur.com/NCvFAN0.png&quot; rel=&quot;nofollow&quot; target=&quot;_NEW&quot;&gt;\nhttp://i.imgur.com/NCvFAN0.png&lt;/a&gt; &lt;a href=&quot;\nhttp://i.imgur.com/r16HYs6.png&quot; rel=&quot;nofollow&quot; target=&quot;_NEW&quot;&gt;\nhttp://i.imgur.com/r16HYs6.png&lt;/a&gt; &lt;a href=&quot;\nhttp://i.imgur.com/hT09erb.png&quot; rel=&quot;nofollow&quot; target=&quot;_NEW&quot;&gt;\nhttp://i.imgur.com/hT09erb.png&lt;/a&gt; &lt;a href=&quot;\nhttp://i.imgur.com/gwn0wwd.png&quot; rel=&quot;nofollow&quot; target=&quot;_NEW&quot;&gt;\nhttp://i.imgur.com/gwn0wwd.png&lt;/a&gt;\n\n\n","torrent":{"xt":"urn:btih:e53a71e0b785c127568f2d7f8097893925ad082a","amp;dn":"Yaariyan+%282014%29+1CD+DVDScr+XviD+Mp3+Chaudhary%26trade%3B++ExD+XMR+Ex","amp;tr":["udp%3A%2F%2Ftracker.openbittorrent.com%3A80","udp%3A%2F%2Fopen.demonii.com%3A1337","udp%3A%2F%2Ftracker.coppersurfer.tk%3A6969","udp%3A%2F%2Fexodus.desync.com%3A6969"],"infoHash":"e53a71e0b785c127568f2d7f8097893925ad082a","infoHashBuffer":{"type":"Buffer","data":[229,58,113,224,183,133,193,39,86,143,45,127,128,151,137,57,37,173,8,42]},"announce":[],"urlList":[]}}